<svg width="361" height="51" viewBox="0 0 361 51" fill="none" xmlns="http://www.w3.org/2000/svg">
<g clip-path="url(#clip0_34_250)">
<path d="M88.0721 32.1867L81.7383 8.94922H85.621L90.7781 29.0655H89.8128L95.1543 8.94922H98.972L104.313 29.0655H103.321L108.473 8.94922H112.355L106.022 32.1867H101.889L96.5154 12.3809H97.6L92.1989 32.1867H88.0667H88.0721Z" fill="currentColor"/>
<path d="M113.5 32.1867V8.57886H117.009V18.6234L116.45 18.1876C116.862 17.1254 117.524 16.3192 118.44 15.7691C119.351 15.2189 120.409 14.9411 121.607 14.9411C122.806 14.9411 123.944 15.2135 124.899 15.7527C125.848 16.292 126.596 17.0437 127.133 17.9969C127.67 18.9556 127.941 20.0451 127.941 21.2707V32.1867H124.432V22.2348C124.432 21.4014 124.275 20.6933 123.966 20.0995C123.657 19.5058 123.218 19.0428 122.659 18.7105C122.101 18.3782 121.461 18.2094 120.734 18.2094C120.007 18.2094 119.395 18.3782 118.825 18.7105C118.256 19.0428 117.811 19.5058 117.491 20.0995C117.171 20.6933 117.009 21.4068 117.009 22.2348V32.1867H113.5Z" fill="currentColor"/>
<path d="M130.456 13.0074V8.95471H133.965V13.0074H130.456ZM130.456 32.1867V15.3115H133.965V32.1867H130.456Z" fill="currentColor"/>
<path d="M144.084 32.3773C142.321 32.3773 140.96 31.8761 139.984 30.8793C139.014 29.8825 138.526 28.4771 138.526 26.6687V18.5307H135.543V15.3169H136.009C136.796 15.3169 137.414 15.0881 137.859 14.6305C138.303 14.173 138.526 13.552 138.526 12.7567V11.444H142.034V15.3114H145.852V18.5252H142.034V26.5107C142.034 27.0936 142.126 27.5892 142.316 27.9923C142.5 28.3954 142.804 28.7114 143.216 28.9292C143.628 29.1471 144.165 29.2561 144.832 29.2561C145 29.2561 145.185 29.2452 145.391 29.2234C145.597 29.2016 145.792 29.1798 145.982 29.1635V32.1866C145.689 32.2302 145.369 32.2683 145.017 32.3119C144.664 32.3555 144.355 32.3718 144.084 32.3718V32.3773Z" fill="currentColor"/>
<path d="M155.7 32.5625C154.024 32.5625 152.543 32.1703 151.258 31.3914C149.973 30.6124 148.97 29.5502 148.249 28.2102C147.522 26.8702 147.164 25.3668 147.164 23.7055C147.164 22.0441 147.527 20.4917 148.249 19.1843C148.975 17.877 149.962 16.8421 151.215 16.0795C152.468 15.3223 153.872 14.941 155.423 14.941C156.708 14.941 157.847 15.1589 158.839 15.5947C159.832 16.0305 160.672 16.6296 161.356 17.3868C162.039 18.1439 162.559 19.0155 162.923 19.9905C163.286 20.9656 163.465 22.006 163.465 23.1117C163.465 23.3841 163.454 23.6619 163.433 23.956C163.411 24.2502 163.373 24.5171 163.308 24.7677H149.924V21.9624H161.29L159.647 23.2425C159.832 22.2238 159.761 21.3142 159.43 20.5134C159.1 19.7127 158.579 19.0809 157.88 18.6124C157.175 18.1439 156.356 17.9097 155.428 17.9097C154.501 17.9097 153.699 18.1439 152.977 18.6124C152.251 19.0809 151.692 19.7509 151.302 20.6224C150.906 21.4939 150.754 22.5343 150.835 23.7436C150.732 24.8875 150.89 25.8843 151.318 26.7395C151.741 27.5947 152.343 28.2593 153.118 28.7332C153.894 29.2125 154.767 29.4522 155.743 29.4522C156.779 29.4522 157.646 29.2234 158.351 28.7658C159.056 28.3083 159.626 27.7145 160.06 26.9901L162.917 28.4227C162.587 29.2125 162.071 29.9206 161.383 30.5416C160.689 31.168 159.859 31.6583 158.899 32.0232C157.939 32.3882 156.876 32.5679 155.716 32.5679L155.7 32.5625Z" fill="currentColor"/>
<path d="M181.008 32.5625C179.354 32.5625 177.825 32.2629 176.426 31.6583C175.027 31.0536 173.812 30.2202 172.776 29.1471C171.74 28.0741 170.932 26.8158 170.352 25.356C169.772 23.9016 169.484 22.3001 169.484 20.5516C169.484 18.8031 169.766 17.2288 170.336 15.7636C170.905 14.2983 171.702 13.0291 172.727 11.956C173.752 10.8829 174.961 10.055 176.361 9.46125C177.76 8.86751 179.283 8.57336 180.943 8.57336C182.602 8.57336 184.018 8.85661 185.319 9.41767C186.626 9.97872 187.721 10.7195 188.611 11.6346C189.5 12.5498 190.14 13.5357 190.536 14.5979L187.277 16.1558C186.778 14.8866 185.986 13.868 184.901 13.0999C183.817 12.3319 182.494 11.9451 180.943 11.9451C179.392 11.9451 178.052 12.3101 176.876 13.0346C175.693 13.7645 174.777 14.7722 174.126 16.0577C173.476 17.3487 173.15 18.8466 173.15 20.5516C173.15 22.2565 173.486 23.7926 174.159 25.089C174.831 26.3909 175.759 27.3986 176.935 28.1122C178.118 28.8312 179.473 29.1907 181.002 29.1907C182.288 29.1907 183.459 28.9238 184.527 28.3954C185.596 27.8671 186.442 27.1154 187.076 26.1512C187.705 25.1816 188.025 24.065 188.025 22.7958V21.1726L189.701 22.6705H180.943V19.5493H191.685V21.7336C191.685 23.4386 191.393 24.9692 190.818 26.3201C190.237 27.671 189.446 28.8094 188.443 29.7354C187.439 30.6614 186.295 31.3641 185.01 31.8435C183.725 32.3228 182.391 32.5625 181.002 32.5625H181.008Z" fill="currentColor"/>
<path d="M193.801 32.1867V8.57886H197.309V32.1921H193.801V32.1867Z" fill="currentColor"/>
<path d="M208.269 32.5625C206.631 32.5625 205.151 32.1757 203.828 31.4077C202.504 30.6397 201.447 29.5884 200.661 28.2593C199.874 26.9302 199.479 25.4213 199.479 23.7381C199.479 22.055 199.869 20.5189 200.644 19.2007C201.42 17.8825 202.472 16.8421 203.795 16.0795C205.118 15.3223 206.61 14.941 208.269 14.941C209.928 14.941 211.409 15.3223 212.726 16.0795C214.039 16.8366 215.085 17.877 215.861 19.2007C216.636 20.5189 217.027 22.0332 217.027 23.7381C217.027 25.4431 216.631 26.9628 215.845 28.2919C215.058 29.621 214.001 30.6669 212.678 31.424C211.354 32.1812 209.885 32.5625 208.269 32.5625ZM208.269 29.2888C209.24 29.2888 210.113 29.0491 210.877 28.5697C211.642 28.0904 212.249 27.4313 212.694 26.587C213.139 25.7427 213.361 24.7949 213.361 23.7327C213.361 22.6705 213.139 21.7336 212.694 20.9111C212.249 20.0886 211.642 19.4349 210.877 18.9447C210.113 18.4544 209.24 18.2093 208.269 18.2093C207.298 18.2093 206.42 18.4544 205.644 18.9447C204.869 19.4349 204.256 20.0886 203.811 20.9111C203.367 21.7336 203.144 22.676 203.144 23.7327C203.144 24.7894 203.367 25.7427 203.811 26.587C204.256 27.4313 204.869 28.0904 205.644 28.5697C206.42 29.0491 207.293 29.2888 208.269 29.2888Z" fill="currentColor"/>
<path d="M223.762 32.1867L217.179 15.3115H220.996L226.056 29.0655H224.657L229.716 15.3115H233.566L226.951 32.1867H223.751H223.762Z" fill="currentColor"/>
<path d="M242.27 32.5625C240.594 32.5625 239.114 32.1703 237.829 31.3914C236.543 30.6124 235.54 29.5502 234.819 28.2102C234.092 26.8702 233.734 25.3668 233.734 23.7055C233.734 22.0441 234.098 20.4917 234.819 19.1843C235.546 17.877 236.533 16.8421 237.785 16.0795C239.038 15.3223 240.442 14.941 241.993 14.941C243.279 14.941 244.417 15.1589 245.41 15.5947C246.402 16.0305 247.243 16.6296 247.926 17.3868C248.609 18.1439 249.13 19.0155 249.493 19.9905C249.856 20.9656 250.035 22.006 250.035 23.1117C250.035 23.3841 250.025 23.6619 250.003 23.956C249.981 24.2502 249.943 24.5171 249.878 24.7677H236.495V21.9624H247.861L246.218 23.2425C246.402 22.2238 246.332 21.3142 246.001 20.5134C245.67 19.7127 245.149 19.0809 244.45 18.6124C243.745 18.1439 242.926 17.9097 241.999 17.9097C241.071 17.9097 240.269 18.1439 239.548 18.6124C238.821 19.0809 238.262 19.7509 237.872 20.6224C237.476 21.4939 237.324 22.5343 237.406 23.7436C237.303 24.8875 237.46 25.8843 237.888 26.7395C238.311 27.5947 238.913 28.2593 239.689 28.7332C240.464 29.2125 241.337 29.4522 242.313 29.4522C243.349 29.4522 244.217 29.2234 244.922 28.7658C245.627 28.3083 246.196 27.7145 246.63 26.9901L249.488 28.4227C249.157 29.2125 248.642 29.9206 247.953 30.5416C247.259 31.168 246.429 31.6583 245.469 32.0232C244.51 32.3882 243.447 32.5679 242.286 32.5679L242.27 32.5625Z" fill="currentColor"/>
<path d="M258.414 32.5625C256.673 32.5625 255.165 32.1377 253.88 31.2825C252.595 30.4327 251.695 29.2888 251.18 27.8508L253.88 26.5707C254.336 27.5294 254.959 28.2865 255.757 28.8476C256.554 29.4086 257.438 29.6919 258.414 29.6919C259.243 29.6919 259.916 29.5067 260.431 29.1308C260.946 28.755 261.206 28.2484 261.206 27.6002C261.206 27.2026 261.093 26.8757 260.865 26.6197C260.637 26.3583 260.35 26.1458 260.008 25.9824C259.666 25.8135 259.319 25.6828 258.967 25.5793L256.326 24.8331C254.856 24.4191 253.766 23.7927 253.051 22.9593C252.335 22.1258 251.977 21.1508 251.977 20.0287C251.977 19.0101 252.237 18.1168 252.752 17.3487C253.267 16.5807 253.983 15.9869 254.894 15.573C255.805 15.159 256.841 14.9465 258.002 14.9465C259.536 14.9465 260.897 15.3278 262.101 16.085C263.3 16.8421 264.151 17.8989 264.65 19.2498L261.917 20.5571C261.586 19.7237 261.065 19.07 260.366 18.5907C259.661 18.1113 258.864 17.8716 257.974 17.8716C257.21 17.8716 256.597 18.0514 256.142 18.4164C255.686 18.7813 255.458 19.2552 255.458 19.8381C255.458 20.2357 255.561 20.5625 255.767 20.8185C255.973 21.08 256.245 21.287 256.575 21.445C256.906 21.6029 257.248 21.7336 257.6 21.8371L260.333 22.6488C261.722 23.0464 262.785 23.6619 263.533 24.5062C264.281 25.3505 264.65 26.3528 264.65 27.5185C264.65 28.5153 264.384 29.3978 263.858 30.1549C263.332 30.9121 262.6 31.5058 261.667 31.9307C260.735 32.3555 259.65 32.568 258.408 32.568L258.414 32.5625Z" fill="currentColor"/>
<path d="M279.497 32.5625C278.027 32.5625 276.677 32.2901 275.446 31.7508C274.215 31.2116 273.157 30.4544 272.279 29.4903C271.4 28.5262 270.761 27.4149 270.37 26.1675L273.477 24.8602C274.036 26.2928 274.855 27.3986 275.929 28.1666C277.002 28.9347 278.249 29.3214 279.654 29.3214C280.484 29.3214 281.199 29.1907 281.812 28.9292C282.42 28.6678 282.897 28.3028 283.238 27.8235C283.58 27.3441 283.748 26.794 283.748 26.173C283.748 25.3396 283.51 24.6696 283.032 24.163C282.555 23.6564 281.861 23.2642 280.95 22.9919L276.574 21.6192C274.833 21.0799 273.515 20.2465 272.615 19.1244C271.715 18.0023 271.265 16.6895 271.265 15.197C271.265 13.9061 271.579 12.7622 272.214 11.7653C272.843 10.7685 273.727 9.98959 274.855 9.42853C275.983 8.86748 277.279 8.58423 278.754 8.58423C280.142 8.58423 281.406 8.82935 282.544 9.31959C283.683 9.80983 284.659 10.4853 285.478 11.3459C286.297 12.2066 286.893 13.2034 287.262 14.3255L284.22 15.6328C283.743 14.4072 283.027 13.4649 282.078 12.8112C281.124 12.1575 280.017 11.8307 278.754 11.8307C277.989 11.8307 277.317 11.9614 276.737 12.2229C276.156 12.4844 275.706 12.8493 275.386 13.3287C275.066 13.808 274.904 14.3691 274.904 15.0118C274.904 15.7581 275.142 16.4281 275.619 17.0055C276.097 17.5883 276.807 18.0241 277.761 18.3182L281.829 19.5983C283.672 20.1594 285.061 20.9655 285.988 22.0168C286.921 23.0681 287.387 24.37 287.387 25.9333C287.387 27.2243 287.051 28.3682 286.378 29.365C285.706 30.3618 284.779 31.1462 283.602 31.7182C282.42 32.2901 281.053 32.5734 279.502 32.5734L279.497 32.5625Z" fill="currentColor"/>
<path d="M297.165 32.3773C295.403 32.3773 294.041 31.8761 293.065 30.8793C292.095 29.8825 291.607 28.4771 291.607 26.6687V18.5307H288.624V15.3169H289.09C289.877 15.3169 290.495 15.0881 290.94 14.6305C291.384 14.173 291.607 13.552 291.607 12.7567V11.444H295.115V15.3114H298.933V18.5252H295.115V26.5107C295.115 27.0936 295.207 27.5892 295.397 27.9923C295.581 28.3954 295.885 28.7114 296.297 28.9292C296.709 29.1471 297.246 29.2561 297.913 29.2561C298.081 29.2561 298.266 29.2452 298.472 29.2234C298.678 29.2016 298.873 29.1798 299.063 29.1635V32.1866C298.77 32.2302 298.45 32.2683 298.098 32.3119C297.745 32.3555 297.436 32.3718 297.165 32.3718V32.3773Z" fill="currentColor"/>
<path d="M307.224 32.5626C305.961 32.5626 304.849 32.2793 303.884 31.7074C302.919 31.1354 302.181 30.3347 301.666 29.3052C301.145 28.2757 300.891 27.0882 300.891 25.7319V15.317H304.399V25.4214C304.399 26.1894 304.556 26.8649 304.866 27.4477C305.175 28.0306 305.608 28.4827 306.172 28.8041C306.731 29.1254 307.371 29.2888 308.098 29.2888C308.824 29.2888 309.497 29.12 310.055 28.7877C310.614 28.4554 311.048 27.987 311.362 27.3824C311.671 26.7777 311.828 26.0696 311.828 25.2634V15.3115H315.337V32.1867H311.986V28.8803L312.392 29.3161C311.997 30.3783 311.34 31.1844 310.419 31.7346C309.497 32.2848 308.434 32.5626 307.235 32.5626H307.224Z" fill="currentColor"/>
<path d="M325.923 32.5625C324.328 32.5625 322.897 32.1704 321.622 31.3914C320.348 30.6125 319.345 29.5557 318.613 28.2266C317.875 26.8975 317.512 25.3996 317.512 23.7328C317.512 22.0659 317.88 20.5734 318.613 19.2389C319.345 17.9098 320.353 16.8585 321.622 16.0904C322.897 15.3224 324.328 14.9357 325.923 14.9357C327.246 14.9357 328.433 15.208 329.48 15.7473C330.526 16.2865 331.351 17.0382 331.947 17.9915L331.389 18.8031V8.57886H334.897V32.1921H331.546V28.7605L331.947 29.4141C331.367 30.4327 330.543 31.2117 329.48 31.7509C328.417 32.2902 327.229 32.5625 325.923 32.5625ZM326.291 29.2888C327.262 29.2888 328.135 29.0491 328.9 28.5698C329.664 28.0905 330.272 27.4314 330.716 26.587C331.161 25.7427 331.383 24.7949 331.383 23.7328C331.383 22.6706 331.161 21.75 330.716 20.9111C330.272 20.0668 329.664 19.4077 328.9 18.9284C328.135 18.449 327.262 18.2094 326.291 18.2094C325.321 18.2094 324.437 18.4545 323.65 18.9447C322.864 19.435 322.251 20.0886 321.817 20.9111C321.384 21.7337 321.167 22.676 321.167 23.7328C321.167 24.7895 321.384 25.7427 321.817 26.587C322.251 27.4314 322.859 28.0905 323.634 28.5698C324.41 29.0491 325.293 29.2888 326.291 29.2888Z" fill="currentColor"/>
<path d="M337.749 13.0074V8.95471H341.258V13.0074H337.749ZM337.749 32.1867V15.3115H341.258V32.1867H337.749Z" fill="currentColor"/>
<path d="M352.217 32.5625C350.579 32.5625 349.099 32.1757 347.776 31.4077C346.453 30.6397 345.395 29.5884 344.609 28.2593C343.823 26.9302 343.427 25.4213 343.427 23.7381C343.427 22.055 343.817 20.5189 344.593 19.2007C345.368 17.8825 346.42 16.8421 347.743 16.0795C349.066 15.3223 350.558 14.941 352.217 14.941C353.877 14.941 355.357 15.3223 356.675 16.0795C357.987 16.8366 359.034 17.877 359.809 19.2007C360.585 20.5189 360.975 22.0332 360.975 23.7381C360.975 25.4431 360.579 26.9628 359.793 28.2919C359.006 29.621 357.949 30.6669 356.626 31.424C355.303 32.1812 353.833 32.5625 352.217 32.5625ZM352.217 29.2888C353.188 29.2888 354.061 29.0491 354.826 28.5697C355.59 28.0904 356.197 27.4313 356.642 26.587C357.087 25.7427 357.309 24.7949 357.309 23.7327C357.309 22.6705 357.087 21.7336 356.642 20.9111C356.197 20.0886 355.59 19.4349 354.826 18.9447C354.061 18.4544 353.188 18.2093 352.217 18.2093C351.246 18.2093 350.368 18.4544 349.592 18.9447C348.817 19.4349 348.204 20.0886 347.76 20.9111C347.315 21.7336 347.093 22.676 347.093 23.7327C347.093 24.7894 347.315 25.7427 347.76 26.587C348.204 27.4313 348.817 28.0904 349.592 28.5697C350.368 29.0491 351.241 29.2888 352.217 29.2888Z" fill="currentColor"/>
<path d="M57.986 51.0001C57.6508 51.0001 57.3233 50.8394 57.1176 50.5562C56.4777 49.6686 56.0435 48.9646 55.6931 48.3908C55.0379 47.3271 54.7104 46.7915 53.6896 46.1028C53.4306 45.9268 53.1868 45.7738 52.9583 45.6208C51.4881 44.6643 50.3225 43.9067 48.799 41.7336C47.961 40.5246 47.344 38.581 46.7422 36.5226L46.5441 35.8493C45.9576 33.8062 45.3405 31.7019 44.6245 30.6001C44.3502 30.1792 43.9922 29.7048 43.6113 29.1921C42.0801 27.1337 40.1833 24.5627 40.5718 22.3513C40.7318 21.456 41.2498 20.6985 42.0725 20.1552C43.1847 19.4206 45.4548 18.6937 48.1134 22.1141C48.441 22.5349 49.1646 23.3537 50.193 24.4709C51.2367 25.6034 52.4327 26.8659 53.3316 27.7995C53.4991 26.7052 53.5144 25.435 52.9659 24.6851C51.7471 23.0247 49.2408 21.831 48.959 21.7009L49.8579 19.7496C50.6196 20.1016 53.2249 21.4101 54.6875 23.4073C56.4625 25.8329 55.076 29.8578 54.9084 30.3093C54.7789 30.6536 54.4895 30.9138 54.1238 30.9903C53.7658 31.0668 53.3925 30.952 53.1335 30.6919C53.1106 30.6689 50.5968 28.0673 48.6238 25.9324C47.5421 24.754 46.8031 23.9199 46.4299 23.4455C44.5864 21.0811 43.6113 21.7162 43.2456 21.961C42.8114 22.2442 42.7124 22.5273 42.6743 22.7339C42.4458 24.0347 44.175 26.3685 45.3253 27.9142C45.729 28.4575 46.1023 28.9625 46.407 29.4217C47.3059 30.7913 47.9382 32.9568 48.6009 35.2524L48.7914 35.9181C49.317 37.724 49.8883 39.5604 50.5435 40.494C51.8309 42.3228 52.7374 42.9196 54.1162 43.8149C54.36 43.9756 54.6113 44.1363 54.878 44.3123C56.2872 45.2535 56.7976 46.0952 57.5137 47.2583C57.7727 47.6868 58.0622 48.1535 58.4507 48.7121C63.0975 47.6332 66.2894 45.1463 68.4147 40.9454C67.1426 39.9354 65.3219 38.1678 63.6765 36.163C62.6252 34.8775 61.6197 31.5718 60.4694 27.7459C59.5019 24.5474 58.1764 20.1628 57.3385 19.4589C56.3253 18.6095 54.0933 17.7831 52.1203 17.0562C50.9853 16.6353 49.9112 16.2374 48.9818 15.8242L49.8579 13.8577C50.7263 14.2479 51.7623 14.6305 52.8669 15.0361C55.1065 15.8625 57.4223 16.7195 58.7173 17.8061C59.959 18.8467 60.9874 22.0146 62.5262 27.1184C63.4784 30.271 64.5525 33.8445 65.3371 34.7933C67.3101 37.2037 69.4584 39.1166 70.3573 39.7058C70.7991 39.9966 70.9667 40.5705 70.7458 41.0526C68.2624 46.5466 64.1564 49.7911 58.1993 50.9694C58.1307 50.9847 58.0622 50.9924 57.9936 50.9924L57.986 51.0001Z" fill="currentColor"/>
<path d="M55.3047 46.8297L54.7715 44.7484C60.6143 43.241 63.1663 40.6547 65.383 36.9664L67.2113 38.0836C64.7812 42.1162 61.8255 45.1463 55.2971 46.8297H55.3047Z" fill="currentColor"/>
<path d="M22.4267 25.2743H20.2861V1.07892C20.2861 0.48207 20.7661 0 21.3602 0H49.4241C50.0183 0 50.4982 0.48207 50.4982 1.07892V25.2054H48.3576V2.15019H22.4267V25.2743Z" fill="currentColor"/>
<path d="M47.7782 35.1528H23.0586V37.303H47.7782V35.1528Z" fill="currentColor"/>
<path d="M52.4107 45.2687C51.2909 44.4882 50.5748 44.1897 49.5845 43.7918C48.8837 43.5087 48.0991 43.1797 46.9869 42.6287C44.9453 41.6034 43.8636 39.5374 42.6067 37.15L42.3857 36.7368L44.2749 35.7344L44.4959 36.1552C45.6233 38.2978 46.507 39.9965 47.9315 40.7081C48.9675 41.2284 49.7216 41.5345 50.3844 41.81C51.4585 42.2462 52.3041 42.5981 53.6219 43.5164L52.4031 45.284L52.4107 45.2687Z" fill="currentColor"/>
<path d="M12.8435 51C12.7749 51 12.7064 51 12.6378 50.977C6.68072 49.7986 2.58236 46.5542 0.098973 41.0601C-0.121942 40.5781 0.0456486 40.0042 0.487479 39.7134C1.38637 39.1242 3.53458 37.2112 5.50758 34.8009C6.29221 33.8444 7.36632 30.2786 8.31854 27.126C9.85733 22.0222 10.8857 18.8543 12.1274 17.8136C13.4301 16.727 15.7382 15.87 17.9779 15.0436C19.0748 14.6381 20.1185 14.2555 20.9869 13.8652L21.8629 15.8318C20.9259 16.2526 19.8594 16.6505 18.7244 17.0637C16.7514 17.7907 14.5194 18.6171 13.5062 19.4664C12.6683 20.1704 11.3428 24.555 10.3753 27.7535C9.21743 31.5794 8.21951 34.885 7.16826 36.1706C5.52282 38.1754 3.70217 39.943 2.43001 40.953C4.55536 45.1463 7.74721 47.6408 12.3864 48.7197C12.7673 48.1611 13.0568 47.6867 13.3234 47.2658C14.0395 46.1027 14.5499 45.261 15.9592 44.3198C16.2258 44.1438 16.4772 43.9755 16.7209 43.8225C18.0997 42.9272 19.0063 42.3303 20.2937 40.5015C20.9412 39.568 21.5125 37.7315 22.0457 35.9257L22.2362 35.26C22.8989 32.9644 23.5312 30.7989 24.4301 29.4292C24.7348 28.9701 25.1157 28.4574 25.5118 27.9218C26.6545 26.3761 28.3913 24.0423 28.1628 22.7415C28.1247 22.5348 28.0257 22.2517 27.5915 21.9686C27.2258 21.7237 26.2584 21.081 24.4073 23.4531C24.034 23.9275 23.2951 24.7692 22.2133 25.94C20.2403 28.0748 17.7265 30.6765 17.696 30.6994C17.437 30.9673 17.0637 31.082 16.7057 30.9979C16.3477 30.9213 16.0506 30.6612 15.9211 30.3168C15.7535 29.8654 14.367 25.8405 16.142 23.4148C17.6046 21.4177 20.2099 20.1092 20.9716 19.7572L21.8705 21.7084C21.5887 21.8385 19.0824 23.0322 17.8712 24.6927C17.3227 25.4426 17.338 26.7128 17.5056 27.807C18.3968 26.8735 19.6004 25.6109 20.6441 24.4784C21.6725 23.3613 22.3885 22.5502 22.7237 22.1216C25.3899 18.7089 27.6524 19.4282 28.7646 20.1628C29.5873 20.706 30.1053 21.4636 30.2653 22.3589C30.6538 24.5703 28.757 27.1413 27.2258 29.1997C26.8449 29.7123 26.4869 30.1944 26.2127 30.6153C25.489 31.7095 24.8796 33.8214 24.293 35.8645L24.0949 36.5378C23.4931 38.5962 22.8761 40.5475 22.0381 41.7488C20.5146 43.9219 19.3491 44.6795 17.8788 45.636C17.6427 45.789 17.3989 45.9497 17.1475 46.118C16.1344 46.7991 15.7992 47.3347 15.1441 48.406C14.7936 48.9722 14.3594 49.6838 13.7195 50.5715C13.5139 50.8546 13.1939 51.0153 12.8511 51.0153L12.8435 51Z" fill="currentColor"/>
<path d="M15.5255 46.8297C9.0047 45.1463 6.04139 42.1162 3.61133 38.0836L5.43959 36.9664C7.66398 40.6547 10.2159 43.241 16.0511 44.7484L15.5179 46.8297H15.5255Z" fill="currentColor"/>
<path d="M18.4278 45.2687L17.209 43.5011C18.5269 42.5829 19.3724 42.2385 20.4465 41.7947C21.1093 41.5269 21.8558 41.2132 22.8995 40.6929C24.324 39.9736 25.2153 38.2825 26.3351 36.14L26.556 35.7191L28.4452 36.7215L28.2243 37.1347C26.975 39.5221 25.8932 41.5881 23.8517 42.6135C22.7395 43.1721 21.9472 43.4935 21.254 43.7766C20.2637 44.1821 19.5553 44.4729 18.4278 45.2534V45.2687Z" fill="currentColor"/>
<path d="M26.1142 21.2723H23.9736V4.76715C23.9736 4.1703 24.4536 3.68823 25.0477 3.68823H45.7223C46.3165 3.68823 46.7965 4.1703 46.7965 4.76715V21.2264H44.6559V5.83842H26.1218V21.2647L26.1142 21.2723Z" fill="currentColor"/>
<path d="M45.7223 33.4618H25.0477C24.4536 33.4618 23.9736 32.9798 23.9736 32.3829V30.4623H26.1142V31.304H44.6482V30.3398H46.7888V32.3753C46.7888 32.9721 46.3089 33.4542 45.7147 33.4542L45.7223 33.4618Z" fill="currentColor"/>
</g>
<defs>
<clipPath id="clip0_34_250">
<rect width="361" height="51" fill="white"/>
</clipPath>
</defs>
</svg>
