<svg width="512" height="513" viewBox="0 0 512 513" fill="none" xmlns="http://www.w3.org/2000/svg">
<rect width="512" height="513" fill="white"/>
<path d="M413.63 434.893C411.291 434.893 409.006 433.772 407.57 431.796C403.105 425.602 400.075 420.69 397.63 416.685C393.058 409.263 390.772 405.525 383.649 400.719C381.841 399.491 380.14 398.423 378.545 397.355C368.286 390.68 360.152 385.394 349.521 370.229C343.673 361.792 339.367 348.229 335.168 333.866L333.786 329.167C329.692 314.909 325.387 300.225 320.39 292.536C318.476 289.599 315.977 286.289 313.319 282.711C302.634 268.347 289.398 250.406 292.109 234.974C293.225 228.726 296.84 223.44 302.581 219.649C310.342 214.523 326.184 209.45 344.736 233.318C347.022 236.255 352.072 241.969 359.249 249.765C366.532 257.668 374.878 266.478 381.15 272.993C382.32 265.357 382.426 256.493 378.599 251.26C370.093 239.673 352.604 231.343 350.637 230.435L356.91 216.819C362.226 219.275 380.406 228.406 390.613 242.343C402.999 259.269 393.324 287.356 392.154 290.507C391.251 292.91 389.23 294.725 386.679 295.259C384.18 295.793 381.576 294.992 379.768 293.177C379.609 293.017 362.066 274.861 348.298 259.964C340.749 251.74 335.593 245.92 332.988 242.609C320.124 226.11 313.319 230.542 310.768 232.25C307.738 234.226 307.047 236.202 306.781 237.644C305.186 246.721 317.253 263.007 325.28 273.794C328.098 277.585 330.702 281.109 332.829 284.313C339.102 293.871 343.514 308.982 348.139 325.002L349.468 329.647C353.136 342.249 357.122 355.064 361.694 361.579C370.678 374.341 377.004 378.506 386.626 384.753C388.327 385.875 390.081 386.996 391.942 388.224C401.776 394.792 405.338 400.666 410.335 408.782C412.142 411.772 414.162 415.03 416.873 418.928C449.3 411.398 471.574 394.044 486.405 364.729C477.528 357.681 464.823 345.346 453.34 331.356C446.004 322.385 438.987 299.317 430.96 272.619C424.209 250.299 414.959 219.702 409.112 214.789C402.042 208.862 386.466 203.095 372.698 198.023C364.777 195.086 357.282 192.309 350.797 189.426L356.91 175.703C362.97 178.426 370.2 181.096 377.908 183.926C393.536 189.693 409.697 195.673 418.734 203.256C427.399 210.518 434.575 232.624 445.313 268.24C451.958 290.24 459.454 315.176 464.929 321.798C478.697 338.618 493.688 351.967 499.961 356.079C503.044 358.108 504.213 362.113 502.672 365.477C485.342 403.816 456.689 426.457 415.119 434.68C414.64 434.787 414.162 434.84 413.684 434.84L413.63 434.893Z" fill="black"/>
<path d="M394.919 405.792L391.198 391.268C431.971 380.748 449.779 362.7 465.249 336.963L478.007 344.759C461.049 372.899 440.423 394.044 394.866 405.792H394.919Z" fill="black"/>
<path d="M165.487 255.371H150.549V86.529C150.549 82.364 153.898 79 158.044 79H353.882C358.029 79 361.378 82.364 361.378 86.529V254.891H346.44V94.0047H165.487V255.371Z" fill="black"/>
<path d="M342.398 324.307H169.896V339.312H342.398V324.307Z" fill="black"/>
<path d="M374.724 394.899C366.91 389.452 361.913 387.37 355.002 384.593C350.111 382.617 344.636 380.321 336.875 376.477C322.628 369.321 315.079 354.904 306.308 338.244L304.767 335.361L317.95 328.366L319.492 331.302C327.359 346.254 333.526 358.108 343.466 363.074C350.696 366.705 355.959 368.841 360.584 370.763C368.079 373.807 373.98 376.263 383.176 382.671L374.671 395.005L374.724 394.899Z" fill="black"/>
<path d="M98.6121 434.893C98.1337 434.893 97.6552 434.893 97.1768 434.733C55.6064 426.51 27.0069 403.869 9.67703 365.53C8.13542 362.166 9.30492 358.161 12.3881 356.132C18.6609 352.021 33.6518 338.671 47.4199 321.851C52.8953 315.176 60.3907 290.293 67.0356 268.294C77.7737 232.678 84.9502 210.571 93.6151 203.309C102.705 195.727 118.813 189.746 134.441 183.979C142.096 181.149 149.379 178.479 155.439 175.756L161.552 189.479C155.014 192.416 147.572 195.193 139.651 198.076C125.883 203.149 110.307 208.916 103.237 214.843C97.3894 219.755 88.1398 250.352 81.3886 272.672C73.3084 299.371 66.3446 322.438 59.0086 331.409C47.5263 345.399 34.8213 357.734 25.9437 364.783C40.7751 394.044 63.0487 411.452 95.4225 418.981C98.0805 415.083 100.101 411.772 101.961 408.835C106.958 400.719 110.52 394.845 120.354 388.277C122.215 387.049 123.969 385.874 125.67 384.807C135.292 378.559 141.618 374.394 150.602 361.632C155.12 355.118 159.107 342.302 162.828 329.7L164.157 325.055C168.782 309.036 173.194 293.924 179.467 284.366C181.593 281.162 184.251 277.585 187.016 273.847C194.989 263.061 207.11 246.774 205.515 237.697C205.249 236.255 204.558 234.279 201.528 232.304C198.976 230.595 192.225 226.11 179.307 242.663C176.703 245.973 171.546 251.847 163.998 260.017C150.23 274.915 132.687 293.07 132.474 293.23C130.667 295.099 128.062 295.9 125.564 295.313C123.065 294.779 120.992 292.963 120.088 290.56C118.919 287.41 109.244 259.323 121.63 242.396C131.836 228.459 150.017 219.328 155.333 216.872L161.606 230.488C159.639 231.396 142.149 239.726 133.697 251.313C129.87 256.546 129.976 265.41 131.145 273.046C137.365 266.531 145.764 257.721 153.047 249.818C160.223 242.022 165.22 236.362 167.559 233.372C186.165 209.556 201.953 214.576 209.714 219.702C215.456 223.493 219.07 228.78 220.187 235.027C222.898 250.459 209.661 268.4 198.976 282.764C196.318 286.342 193.82 289.706 191.906 292.643C186.856 300.279 182.603 315.016 178.51 329.273L177.128 333.972C172.928 348.336 168.623 361.952 162.775 370.336C152.143 385.501 144.01 390.787 133.75 397.462C132.102 398.53 130.401 399.651 128.647 400.826C121.577 405.578 119.238 409.316 114.666 416.792C112.221 420.743 109.191 425.709 104.725 431.903C103.29 433.879 101.057 435 98.6653 435L98.6121 434.893Z" fill="black"/>
<path d="M117.328 405.792C71.8241 394.044 51.1452 372.899 34.1875 344.759L46.9457 336.963C62.4681 362.7 80.2764 380.748 120.996 391.268L117.275 405.792H117.328Z" fill="black"/>
<path d="M137.582 394.899L129.076 382.564C138.273 376.156 144.173 373.753 151.669 370.656C156.294 368.787 161.503 366.598 168.786 362.967C178.727 357.948 184.946 346.147 192.761 331.196L194.302 328.259L207.486 335.254L205.944 338.137C197.226 354.797 189.677 369.214 175.431 376.37C167.67 380.268 162.141 382.51 157.304 384.486C150.393 387.316 145.449 389.345 137.582 394.792V394.899Z" fill="black"/>
<path d="M191.219 227.445H176.281V112.267C176.281 108.102 179.63 104.737 183.777 104.737H328.05C332.197 104.737 335.546 108.102 335.546 112.267V227.124H320.608V119.742H191.272V227.391L191.219 227.445Z" fill="black"/>
<path d="M328.05 312.507H183.777C179.63 312.507 176.281 309.143 176.281 304.978V291.575H191.219V297.449H320.555V290.721H335.493V304.924C335.493 309.089 332.144 312.453 327.997 312.453L328.05 312.507Z" fill="black"/>
</svg>
